<svg version="1.1" id="Layer_1" xmlns="http://www.w3.org/2000/svg" xmlns:xlink="http://www.w3.org/1999/xlink" x="0px" y="0px"
	 width="100%" viewBox="0 0 1024 1024" enable-background="new 0 0 1024 1024" xml:space="preserve">
<path fill="#000000" opacity="1.000000" stroke="none" 
	d="
M373.041016,688.062378 
	C377.275726,677.556885 379.585602,666.917236 379.610779,656.071106 
	C379.783112,581.755066 379.967529,507.436859 379.551208,433.122650 
	C379.344940,396.301636 365.415863,365.075745 337.983002,340.154022 
	C337.125000,339.374603 336.319733,338.522858 335.590515,337.623230 
	C335.313965,337.281982 335.322021,336.710022 335.055389,335.687164 
	C343.310333,334.007172 351.463318,333.263824 359.757446,334.192017 
	C392.967377,337.908722 416.034058,356.547150 432.666840,384.257416 
	C444.871582,404.590576 450.103180,426.941742 450.298279,450.537567 
	C450.525604,478.025360 451.172760,505.521057 450.760895,533.000122 
	C450.109070,576.487732 450.743317,619.972290 450.366577,663.456360 
	C450.303864,670.695312 450.363708,670.727051 457.428986,670.732971 
	C496.086761,670.765381 534.761719,670.094971 573.395691,671.064331 
	C595.968994,671.630676 613.827881,662.577271 629.764709,648.428162 
	C648.426819,631.859436 659.732056,610.423401 667.943665,587.167114 
	C670.021606,581.282227 671.626953,575.164673 674.832031,569.500000 
	C678.826599,570.982727 679.793518,574.381348 681.147522,577.232727 
	C695.456848,607.366516 694.502869,637.440674 678.696167,666.454407 
	C663.660217,694.053406 640.803955,712.958374 610.437805,722.211792 
	C605.800537,723.624878 601.037903,724.322754 596.164246,724.320496 
	C512.849915,724.281799 429.535553,724.266113 346.221191,724.216797 
	C344.806152,724.215942 343.208313,724.722900 341.362366,722.643860 
	C356.257385,715.177673 366.708771,703.681213 373.041016,688.062378 
z"/>
<path fill="#000000" opacity="1.000000" stroke="none" 
	d="
M586.846436,518.681152 
	C597.229858,542.483215 607.401306,566.102722 613.689636,590.992676 
	C621.638733,622.456116 599.105530,655.109619 567.048767,660.184570 
	C563.233521,660.788574 561.341125,659.893555 560.636047,655.625732 
	C555.999207,627.557312 560.735352,601.293518 575.373230,576.669617 
	C571.007935,578.436829 568.223572,581.267029 564.550171,587.533569 
	C556.897217,600.589050 553.077393,614.774780 552.272400,629.803650 
	C551.809326,638.448669 551.617371,647.107910 551.211060,655.756470 
	C551.126099,657.566040 551.901123,660.367920 548.793579,660.227966 
	C546.161133,660.109436 546.811218,657.554443 546.760132,655.863647 
	C546.272583,639.735352 546.158630,623.586731 541.741699,607.853943 
	C538.965210,597.964172 534.983459,588.713562 528.477173,580.676880 
	C527.134766,579.018738 525.858093,577.206726 522.688049,576.649048 
	C525.776672,583.551392 529.609497,589.546753 531.988525,596.236572 
	C538.834229,615.486572 539.407654,635.297302 538.055725,655.355957 
	C537.746521,659.943481 535.140686,660.605225 531.257996,660.197021 
	C504.428619,657.376953 484.094147,634.867065 483.516449,607.803894 
	C483.254639,595.538940 486.319427,584.156067 490.303833,572.758179 
	C496.780945,554.229614 503.985229,535.996338 511.147766,517.465698 
	C526.496460,529.088867 543.746582,528.730713 561.124634,527.341980 
	C567.960999,526.795654 574.521545,524.847107 580.761658,521.935120 
	C582.889038,520.942383 585.251892,520.140259 584.485962,517.077087 
	C585.925659,516.890564 586.196899,517.778870 586.846436,518.681152 
z"/>
<path fill="#000000" opacity="1.000000" stroke="none" 
	d="
M580.289062,422.271454 
	C584.050110,419.335083 586.727051,415.518036 591.494507,413.848236 
	C594.208374,418.567291 594.221741,423.800995 595.126038,428.739960 
	C596.802917,437.898651 597.815918,447.159088 598.272400,456.464355 
	C598.385010,458.759552 599.437378,460.593781 600.497314,462.470428 
	C602.721008,466.407867 604.734497,470.507263 605.261047,474.990845 
	C605.802673,479.603088 607.891174,481.434387 612.446716,480.726929 
	C613.537292,480.557556 614.706177,480.892120 615.881653,480.998779 
	C616.351074,483.828766 614.081604,484.507812 612.645874,485.625214 
	C607.105469,489.937469 601.669922,494.396027 597.933655,500.420776 
	C589.957336,513.282532 578.043945,519.677185 563.478760,521.642944 
	C548.460449,523.669800 533.594238,523.294128 519.376526,517.251770 
	C513.127686,514.596069 508.069519,510.408661 504.169464,504.734833 
	C499.244568,497.569916 493.527924,491.110046 486.406433,485.964996 
	C484.766663,484.780304 482.502930,483.863800 482.374329,481.195557 
	C484.189850,478.977325 486.426239,480.542236 488.406403,480.623657 
	C491.163940,480.737152 492.798401,480.202637 492.956848,476.953613 
	C493.127960,473.444427 494.140564,469.899445 496.005524,467.006622 
	C500.099792,460.655792 500.820770,453.795563 500.730560,446.506287 
	C500.606537,436.485413 502.720398,426.694092 504.645935,416.908173 
	C504.903137,415.600922 505.107178,414.266144 506.666748,413.378387 
	C510.576965,415.100800 513.467102,418.399109 516.687195,421.192261 
	C522.089417,425.878143 527.362427,430.719971 532.544373,435.649109 
	C534.438782,437.451080 536.492920,437.943451 538.914734,437.695496 
	C545.883545,436.981903 552.855225,436.691010 559.825378,437.651367 
	C562.539246,438.025269 564.600220,436.971588 566.526489,435.118164 
	C570.963135,430.849304 575.523743,426.709198 580.289062,422.271454 
z"/>
</svg>