<svg version="1.1" id="Layer_1" xmlns="http://www.w3.org/2000/svg" xmlns:xlink="http://www.w3.org/1999/xlink" x="0px" y="0px"
	 width="100%" viewBox="0 0 1024 1024" enable-background="new 0 0 1024 1024" xml:space="preserve">
<path fill="#000000" opacity="1.000000" stroke="none" 
	d="
M485.840149,722.314697 
	C428.076965,714.497620 381.134125,688.980164 348.026794,640.708984 
	C329.852448,614.210388 323.349365,584.412781 325.347382,552.423950 
	C326.194641,538.859497 328.662170,525.713257 332.216583,512.703186 
	C333.174225,509.198090 332.213165,506.125854 331.200562,502.965393 
	C316.291718,456.431824 308.068024,408.896057 310.938538,359.907074 
	C312.008240,341.651337 314.271515,323.422699 321.011444,306.138245 
	C326.333405,292.490112 332.480225,287.651459 349.266357,294.088409 
	C370.122162,302.086029 387.078369,316.225830 403.588776,330.858032 
	C422.196106,347.348602 439.145752,365.486725 456.006470,383.701843 
	C459.112061,387.056946 462.050903,388.197601 466.520996,386.817657 
	C483.179565,381.674927 500.237640,379.367371 517.717773,379.628296 
	C531.688477,379.836853 545.222778,382.419189 558.442200,386.469818 
	C564.244629,388.247711 567.776917,386.599518 571.468750,382.473297 
	C588.476257,363.464539 606.250549,345.206512 625.703796,328.659454 
	C639.423096,316.989807 653.464294,305.754669 669.611328,297.497742 
	C675.418152,294.528351 681.372131,292.048737 687.928223,291.173828 
	C696.167725,290.074280 701.774475,293.096527 705.174255,300.703888 
	C711.233337,314.261627 713.430420,328.762604 715.251343,343.292999 
	C720.927917,388.589661 714.662598,432.928467 703.980103,476.856964 
	C701.581909,486.718750 698.894226,496.518616 696.009094,506.248932 
	C694.982727,509.710449 695.549377,512.787170 696.424072,516.013916 
	C703.990295,543.926575 704.830750,571.947144 696.614014,599.804138 
	C686.561218,633.885681 666.180969,660.969788 638.382446,682.625977 
	C605.843384,707.975403 568.591248,720.663330 527.652954,723.477783 
	C513.792786,724.430725 500.040924,724.018433 485.840149,722.314697 
M698.668884,349.879700 
	C698.083557,344.257996 697.830017,338.577118 696.839783,333.027679 
	C695.103638,323.297974 690.217529,320.918854 681.037231,324.715637 
	C671.435181,328.686798 663.815613,335.408966 656.508667,342.476166 
	C637.710022,360.658203 622.785950,381.886688 608.808167,403.832275 
	C604.392883,410.764374 604.422424,410.794739 611.389099,415.129913 
	C632.844116,428.480835 651.298950,445.036896 665.855896,465.817047 
	C667.713745,468.469177 669.231445,471.501038 671.742920,473.389984 
	C673.870544,472.878601 674.446289,471.365906 675.132690,470.106964 
	C678.717773,463.532074 682.341736,456.970123 684.991028,449.936554 
	C697.045227,417.934296 700.562439,384.749207 698.668884,349.879700 
M363.426971,336.071075 
	C357.766144,331.093048 351.752380,326.659729 344.535431,324.168365 
	C338.135895,321.959198 334.356873,323.619568 331.824158,329.905457 
	C330.898743,332.202209 330.301361,334.662781 329.819336,337.101013 
	C328.004608,346.280487 327.601959,355.623749 327.483948,364.920258 
	C327.163483,390.170746 329.871826,415.046539 337.624512,439.239105 
	C341.600006,451.644867 347.115631,463.249146 354.144928,474.415100 
	C356.676666,473.191833 357.496857,471.090576 358.662323,469.353546 
	C364.794800,460.213196 371.468506,451.498688 379.019348,443.482666 
	C390.055695,431.766357 402.673248,422.027496 416.502594,413.840088 
	C419.457672,412.090607 421.812317,410.538849 419.170685,406.518036 
	C402.790741,381.586456 386.341278,356.727051 363.426971,336.071075 
M366.982239,572.584656 
	C362.704681,570.154663 358.427094,567.724670 354.149536,565.294617 
	C356.493073,567.894714 359.084229,570.163757 361.860901,572.176941 
	C375.812866,582.292480 390.086151,591.704346 407.680786,594.406189 
	C426.173889,597.245972 446.127167,583.389832 444.025421,561.817200 
	C442.078979,541.838440 422.474243,529.394653 404.047333,537.336792 
	C392.195374,542.445068 385.580322,557.032898 390.681702,566.949402 
	C391.852386,569.225098 393.373352,571.555542 396.463074,570.326416 
	C399.325531,569.187744 399.014221,566.687378 398.100555,564.378296 
	C396.357025,559.971680 397.144287,555.875671 399.364899,551.919189 
	C403.020721,545.405518 411.244385,541.740173 418.568024,543.315674 
	C427.615845,545.262146 434.517029,552.497864 435.345245,560.906250 
	C436.951904,577.217773 424.441406,588.926941 408.005066,586.829773 
	C393.548492,584.985168 380.300049,579.870300 366.982239,572.584656 
M612.861633,587.099426 
	C611.550415,586.868042 610.230408,586.677490 608.929321,586.398804 
	C598.550720,584.175903 591.906555,576.380554 591.223755,565.650940 
	C590.617065,556.116638 597.217407,546.732971 606.852112,543.633179 
	C613.763977,541.409424 619.836853,543.582825 624.801697,548.275574 
	C629.132507,552.369080 631.165710,557.563782 628.928894,563.693481 
	C627.960083,566.348450 627.429688,569.344421 630.868286,570.372559 
	C634.505005,571.459900 635.777283,568.510681 636.657715,565.674561 
	C640.810364,552.297302 632.746765,538.349792 616.253113,535.528870 
	C601.382324,532.985474 587.416321,542.826233 584.106384,556.953613 
	C580.164490,573.778503 587.329102,587.510376 602.771423,593.002319 
	C608.771851,595.136353 614.870605,595.327576 620.988342,594.182007 
	C638.671265,590.870544 653.410034,581.545471 667.485229,570.965027 
	C668.450012,570.239807 669.652405,569.456604 669.696533,567.321960 
	C666.839661,568.923401 664.274048,570.343384 661.725525,571.793213 
	C646.813293,580.276550 631.326843,586.960999 612.861633,587.099426 
M500.424927,640.096375 
	C502.938324,643.258789 506.258026,645.506958 509.342010,648.031372 
	C511.619965,649.895935 513.705566,649.988770 516.040588,648.115112 
	C524.025818,641.707642 531.039917,634.466064 535.805115,625.293030 
	C540.655151,615.956421 537.411987,610.404297 527.118896,611.257324 
	C516.988403,612.096985 506.970306,612.398743 496.814911,611.362427 
	C487.820618,610.444580 484.758759,615.506226 488.538269,623.922913 
	C491.236450,629.931580 495.516663,634.810059 500.424927,640.096375 
M515.348755,665.798462 
	C514.399170,661.982239 515.040161,657.863464 512.968567,653.543091 
	C510.952515,660.539124 511.490784,667.420410 508.562134,673.580322 
	C511.696503,673.580322 514.279724,673.580322 516.856018,673.580322 
	C517.569580,670.803528 515.520203,668.913086 515.348755,665.798462 
z"/>
</svg>