<svg version="1.1" id="Layer_1" xmlns="http://www.w3.org/2000/svg" xmlns:xlink="http://www.w3.org/1999/xlink" x="0px" y="0px"
	 width="100%" viewBox="0 0 1024 576" enable-background="new 0 0 1024 576" xml:space="preserve">
<path fill="#000000" opacity="1.000000" stroke="none" 
	d="
M527.984985,314.017639 
	C530.307190,316.435211 532.523193,318.479095 534.443604,320.770691 
	C538.003723,325.018799 537.893555,329.883728 534.372192,333.350098 
	C530.936462,336.732147 526.365479,337.104645 522.328491,333.277557 
	C513.029602,324.462280 504.093201,315.263763 495.043671,306.186951 
	C492.928711,304.065613 491.049835,301.702148 488.870728,299.653900 
	C487.450104,298.318665 486.428528,295.464905 483.681732,297.131592 
	C481.266144,298.597290 479.125549,300.291046 479.214691,303.756409 
	C479.403015,311.080170 479.392975,318.414215 479.246552,325.739685 
	C479.129791,331.581116 475.946350,335.090912 470.718109,335.635895 
	C464.904572,336.241882 460.803070,332.409882 460.727783,325.930389 
	C460.603943,315.272064 460.688629,304.611359 460.679871,293.951660 
	C460.668518,280.127350 460.621277,266.302979 460.650116,252.478760 
	C460.664581,245.552536 463.906311,241.258514 469.145538,240.993073 
	C474.270172,240.733429 478.855255,245.568710 479.057770,252.059143 
	C479.300354,259.834351 479.115021,267.622894 479.115021,276.751129 
	C486.648254,270.419678 493.226562,264.953613 499.733002,259.403320 
	C505.306763,254.648621 510.806458,249.806885 516.323792,244.986328 
	C522.030273,240.000610 527.442383,239.628464 531.292419,243.986557 
	C535.096924,248.293045 533.910767,254.437897 528.272156,259.185852 
	C519.231384,266.798553 510.152130,274.365570 501.090179,281.953094 
	C500.208313,282.691437 499.230530,283.361084 498.975616,284.840088 
	C508.758545,294.223572 518.631470,303.615936 527.984985,314.017639 
z"/>
<path fill="#000000" opacity="1.000000" stroke="none" 
	d="
M735.031372,245.951904 
	C743.222900,260.526855 748.634888,275.954010 755.209351,290.858185 
	C759.639465,300.901154 763.715576,311.102600 767.832031,321.280945 
	C770.377136,327.574036 768.816467,332.796814 763.990051,334.978577 
	C758.833801,337.309418 753.657837,335.006409 750.724548,328.801880 
	C748.949646,325.047546 747.428467,321.160797 746.009460,317.255005 
	C745.067322,314.661865 743.517761,313.710144 740.756470,313.764801 
	C731.276001,313.952393 721.782471,314.348877 712.316833,313.462524 
	C709.566162,313.204926 708.439758,314.696899 707.607300,316.909119 
	C705.967346,321.267273 704.494629,325.709991 702.523621,329.916687 
	C699.738708,335.860626 694.017090,337.645355 688.884216,334.535187 
	C684.687927,331.992523 683.511108,328.111511 685.790405,322.267365 
	C690.928467,309.093109 696.287415,296.004974 701.564941,282.885162 
	C705.971619,271.930267 710.157654,260.878815 714.872620,250.057983 
	C719.124207,240.300400 726.488525,238.861465 735.031372,245.951904 
M734.804077,288.601990 
	C732.168213,282.190857 729.532349,275.779755 726.785767,269.099396 
	C723.703796,273.921570 716.319824,292.428894 715.982422,295.914856 
	C720.321472,297.020294 732.781921,297.003510 737.053833,295.857849 
	C737.126038,293.466766 735.693787,291.506683 734.804077,288.601990 
z"/>
<path fill="#000000" opacity="1.000000" stroke="none" 
	d="
M393.280365,336.142365 
	C375.625153,334.075836 363.219666,325.734131 357.309875,308.968781 
	C356.542725,306.792419 355.840302,304.448273 355.821899,302.176025 
	C355.683044,285.019165 355.643402,267.860291 355.759857,250.703323 
	C355.790771,246.146011 358.031769,242.760162 362.689056,241.432449 
	C366.652100,240.302643 369.441681,242.239395 371.802490,245.068787 
	C373.146576,246.679596 373.275421,248.686493 373.417877,250.719406 
	C374.525513,266.525513 373.711517,282.360901 374.201477,298.174225 
	C374.614044,311.490753 386.463257,320.962677 399.472321,318.467560 
	C408.801056,316.678345 415.564850,308.717255 415.660522,298.951965 
	C415.805756,284.127197 415.713623,269.300140 415.746979,254.474121 
	C415.766205,245.932556 418.884003,241.251465 424.567719,241.129517 
	C430.275208,241.007065 434.264282,246.417816 434.282196,254.391312 
	C434.313660,268.384460 434.334564,282.377686 434.321503,296.370850 
	C434.298553,320.953583 418.485718,336.449829 393.280365,336.142365 
z"/>
<path fill="#000000" opacity="1.000000" stroke="none" 
	d="
M640.249084,258.311340 
	C636.335571,257.757996 632.854797,257.641937 629.577637,259.285492 
	C626.394226,260.882019 624.360901,263.287048 624.098206,267.021729 
	C623.827698,270.867798 625.668091,273.533386 628.916870,275.020874 
	C633.444397,277.093811 638.143982,278.794830 642.789490,280.604950 
	C647.610291,282.483398 652.310242,284.605286 656.571655,287.566681 
	C670.663147,297.359253 671.139465,318.239532 657.536255,328.751953 
	C643.148865,339.870422 621.796936,338.446503 609.134705,325.525879 
	C607.354431,323.709259 606.111023,321.576538 605.300903,319.171021 
	C603.952576,315.167603 605.169556,311.909729 608.401978,309.466675 
	C611.807495,306.892792 615.314758,307.388214 618.490601,309.957123 
	C620.161255,311.308533 621.494324,313.068329 623.079773,314.535706 
	C629.111206,320.118073 639.090149,320.673218 645.141479,315.813019 
	C650.544922,311.473206 650.171448,304.452972 644.282410,300.816101 
	C640.717041,298.614258 636.710571,297.416595 632.802490,295.988403 
	C627.176453,293.932312 621.574524,291.811707 616.540527,288.447174 
	C603.342102,279.625732 601.584412,261.044678 612.926636,249.931686 
	C626.204712,236.922058 649.631104,237.830978 661.878784,251.831039 
	C666.292480,256.876251 666.382751,262.100311 662.123169,265.970337 
	C658.091003,269.633728 653.384155,269.018555 648.636047,264.143799 
	C646.305603,261.751251 644.055664,259.279572 640.249084,258.311340 
z"/>
<path fill="#000000" opacity="1.000000" stroke="none" 
	d="
M294.105347,334.234741 
	C292.289612,334.224091 290.953705,334.273224 289.625549,334.193115 
	C281.402222,333.696808 277.872559,330.152954 277.759552,321.912415 
	C277.631683,312.587006 277.725220,303.258606 277.720764,293.931488 
	C277.714111,279.940826 277.671631,265.950073 277.713440,251.959564 
	C277.733398,245.275650 281.027222,241.127365 286.185699,241.031418 
	C291.237335,240.937454 295.464752,244.969635 295.698486,251.229218 
	C296.102173,262.040314 295.955292,272.872620 296.000488,283.696228 
	C296.038025,292.690094 296.152252,301.686920 295.964600,310.676849 
	C295.882568,314.605621 297.366150,315.935486 301.228882,315.873718 
	C311.385834,315.711243 321.547668,315.835449 331.707397,315.883636 
	C333.532593,315.892303 335.391876,315.895172 337.174896,316.226440 
	C341.796539,317.085114 344.609222,319.938812 345.119568,324.616119 
	C345.560699,328.658875 342.067596,332.786926 337.515259,333.803772 
	C335.751740,334.197723 333.884399,334.243530 332.063965,334.247284 
	C319.572296,334.272919 307.080505,334.245239 294.105347,334.234741 
z"/>
<path fill="#000000" opacity="1.000000" stroke="none" 
	d="
M576.195984,334.364410 
	C567.695557,337.424225 562.077515,333.938690 561.993164,325.397186 
	C561.748169,300.593109 561.725281,275.786133 561.760071,250.980484 
	C561.768188,245.157761 565.855530,241.015839 570.880493,241.052948 
	C575.705750,241.088577 580.209106,245.512497 580.233337,250.959732 
	C580.345520,276.264526 580.281494,301.570099 580.263855,326.875397 
	C580.261719,329.913940 578.905029,332.307159 576.195984,334.364410 
z"/>
<path fill="#000000" opacity="1.000000" stroke="none" 
	d="
M514.490723,345.505920 
	C533.591309,357.966705 553.827759,359.884186 575.136597,354.089600 
	C577.062561,353.565857 578.969421,352.867065 580.932556,352.606476 
	C585.114319,352.051361 588.214539,353.781921 589.389526,357.884796 
	C590.506714,361.785614 588.857910,364.753082 585.213623,366.458374 
	C578.814148,369.452972 571.976562,371.095215 565.030151,371.876526 
	C538.640564,374.844818 515.253845,367.717224 495.036804,350.412659 
	C493.368835,348.984955 491.937195,347.291779 491.162415,345.260712 
	C489.858459,341.842316 490.381256,338.631470 493.286926,336.194733 
	C496.222931,333.732605 499.452484,333.684326 502.441620,336.021973 
	C506.372253,339.095886 509.896271,342.685242 514.490723,345.505920 
z"/>
<path fill="#000000" opacity="1.000000" stroke="none" 
	d="
M554.210510,225.891174 
	C549.251831,221.765396 547.863953,216.984222 549.077454,210.961853 
	C549.886169,206.948120 549.421143,202.694199 549.856262,198.582718 
	C550.126587,196.028122 550.247742,192.797882 553.290588,191.980667 
	C556.188477,191.202362 557.567749,193.975677 559.047791,195.919006 
	C564.445374,203.006119 570.402771,203.069855 575.777405,196.049957 
	C576.281738,195.391174 576.748230,194.689255 577.333191,194.109070 
	C578.603149,192.849548 579.717529,191.015091 581.801453,191.419113 
	C584.193848,191.882950 584.566040,194.194122 584.919983,196.082260 
	C586.177979,202.793472 586.450134,209.624786 586.254456,216.410126 
	C586.058289,223.213425 578.015381,229.591873 569.567444,230.210556 
	C564.080017,230.612442 559.019348,229.346939 554.210510,225.891174 
z"/>
<path fill="#000000" opacity="1.000000" stroke="none" 
	d="
M253.580750,316.209717 
	C248.452454,301.761688 248.388214,287.513184 252.160934,273.183777 
	C253.097946,269.624908 255.342789,267.144470 259.388702,267.876740 
	C263.441162,268.610168 264.698578,271.739349 264.236908,275.380280 
	C263.822083,278.651764 262.868805,281.864624 262.028687,285.070770 
	C259.458405,294.879822 258.763794,304.848663 261.178375,314.671295 
	C264.693726,328.971924 274.158325,338.253967 287.638855,343.681213 
	C290.347900,344.771942 293.388306,345.093628 295.959076,347.002747 
	C286.961334,351.202515 262.200958,339.137238 253.580750,316.209717 
z"/>
</svg>